<?xml version="1.0" encoding="UTF-8" standalone="no"?>
<!DOCTYPE svg PUBLIC "-//W3C//DTD SVG 1.1//EN"
 "http://www.w3.org/Graphics/SVG/1.1/DTD/svg11.dtd">
<!-- Generated by graphviz version 5.0.0 (20220707.1540)
 -->
<!-- Title: StorageDiagram Pages: 1 -->
<svg width="1182pt" height="279pt"
 viewBox="0.00 0.00 1181.77 278.80" xmlns="http://www.w3.org/2000/svg" xmlns:xlink="http://www.w3.org/1999/xlink">
<g id="graph0" class="graph" transform="scale(1 1) rotate(0) translate(4 274.8)">
<title>StorageDiagram</title>
<polygon fill="white" stroke="transparent" points="-4,4 -4,-274.8 1177.77,-274.8 1177.77,4 -4,4"/>
<!-- 3 -->
<g id="node1" class="node">
<title>3</title>
<polygon fill="#f2f2f2" stroke="black" points="0,-71.9 0,-270.3 527.68,-270.3 527.68,-71.9 0,-71.9"/>
<text text-anchor="middle" x="263.84" y="-253.7" font-family="Courier New" font-size="14.00">GasContract &lt;&lt;Contract&gt;&gt;</text>
<polyline fill="none" stroke="black" points="0,-245.5 527.68,-245.5 "/>
<text text-anchor="middle" x="24.8" y="-228.9" font-family="Courier New" font-size="14.00">slot</text>
<polyline fill="none" stroke="black" points="0,-220.7 49.61,-220.7 "/>
<text text-anchor="middle" x="24.8" y="-204.1" font-family="Courier New" font-size="14.00">0</text>
<polyline fill="none" stroke="black" points="0,-195.9 49.61,-195.9 "/>
<text text-anchor="middle" x="24.8" y="-179.3" font-family="Courier New" font-size="14.00">1</text>
<polyline fill="none" stroke="black" points="0,-171.1 49.61,-171.1 "/>
<text text-anchor="middle" x="24.8" y="-154.5" font-family="Courier New" font-size="14.00">2&#45;6</text>
<polyline fill="none" stroke="black" points="0,-146.3 49.61,-146.3 "/>
<text text-anchor="middle" x="24.8" y="-129.7" font-family="Courier New" font-size="14.00">7</text>
<polyline fill="none" stroke="black" points="0,-121.5 49.61,-121.5 "/>
<text text-anchor="middle" x="24.8" y="-104.9" font-family="Courier New" font-size="14.00">8</text>
<polyline fill="none" stroke="black" points="0,-96.7 49.61,-96.7 "/>
<text text-anchor="middle" x="24.8" y="-80.1" font-family="Courier New" font-size="14.00">9</text>
<polyline fill="none" stroke="black" points="49.61,-71.9 49.61,-245.5 "/>
<text text-anchor="middle" x="288.64" y="-228.9" font-family="Courier New" font-size="14.00">type: &lt;inherited contract&gt;.variable (bytes)</text>
<polyline fill="none" stroke="black" points="49.61,-220.7 527.68,-220.7 "/>
<text text-anchor="middle" x="288.63" y="-204.1" font-family="Courier New" font-size="14.00">mapping(address=&gt;uint256): balances (32)</text>
<polyline fill="none" stroke="black" points="49.61,-195.9 527.68,-195.9 "/>
<text text-anchor="middle" x="288.43" y="-179.3" font-family="Courier New" font-size="14.00">mapping(address=&gt;uint8): whitelist (32)</text>
<polyline fill="none" stroke="black" points="49.61,-171.1 527.68,-171.1 "/>
<text text-anchor="middle" x="288.53" y="-154.5" font-family="Courier New" font-size="14.00">address[5]: administrators (160)</text>
<polyline fill="none" stroke="black" points="49.61,-146.3 527.68,-146.3 "/>
<text text-anchor="middle" x="160.32" y="-129.7" font-family="Courier New" font-size="14.00">unallocated (31)</text>
<polyline fill="none" stroke="black" points="271.03,-121.5 271.03,-146.3 "/>
<text text-anchor="middle" x="399.04" y="-129.7" font-family="Courier New" font-size="14.00">bool: wasLastOdd (1)</text>
<polyline fill="none" stroke="black" points="49.61,-121.5 527.68,-121.5 "/>
<text text-anchor="middle" x="288.54" y="-104.9" font-family="Courier New" font-size="14.00">mapping(address=&gt;bool): isOddWhitelistUser (32)</text>
<polyline fill="none" stroke="black" points="49.61,-96.7 527.68,-96.7 "/>
<text text-anchor="middle" x="288.64" y="-80.1" font-family="Courier New" font-size="14.00">mapping(address=&gt;ImportantStruct): whiteListStruct (32)</text>
</g>
<!-- 1 -->
<g id="node2" class="node">
<title>1</title>
<polygon fill="#f2f2f2" stroke="black" points="709.5,-118.7 709.5,-267.5 1027.95,-267.5 1027.95,-118.7 709.5,-118.7"/>
<text text-anchor="middle" x="868.73" y="-250.9" font-family="Courier New" font-size="14.00">address[5]: administrators &lt;&lt;Array&gt;&gt;</text>
<polyline fill="none" stroke="black" points="709.5,-242.7 1027.95,-242.7 "/>
<text text-anchor="middle" x="734.3" y="-226.1" font-family="Courier New" font-size="14.00">slot</text>
<polyline fill="none" stroke="black" points="709.5,-217.9 759.11,-217.9 "/>
<text text-anchor="middle" x="734.3" y="-201.3" font-family="Courier New" font-size="14.00">2</text>
<polyline fill="none" stroke="black" points="709.5,-193.1 759.11,-193.1 "/>
<text text-anchor="middle" x="734.3" y="-176.5" font-family="Courier New" font-size="14.00">3</text>
<polyline fill="none" stroke="black" points="709.5,-168.3 759.11,-168.3 "/>
<text text-anchor="middle" x="734.3" y="-151.7" font-family="Courier New" font-size="14.00">5</text>
<polyline fill="none" stroke="black" points="709.5,-143.5 759.11,-143.5 "/>
<text text-anchor="middle" x="734.3" y="-126.9" font-family="Courier New" font-size="14.00">6</text>
<polyline fill="none" stroke="black" points="759.11,-118.7 759.11,-242.7 "/>
<text text-anchor="middle" x="893.23" y="-226.1" font-family="Courier New" font-size="14.00">type: variable (bytes)</text>
<polyline fill="none" stroke="black" points="759.11,-217.9 1027.34,-217.9 "/>
<text text-anchor="middle" x="834.32" y="-201.3" font-family="Courier New" font-size="14.00">unallocated (12)</text>
<polyline fill="none" stroke="black" points="909.53,-193.1 909.53,-217.9 "/>
<text text-anchor="middle" x="968.44" y="-201.3" font-family="Courier New" font-size="14.00">address (20)</text>
<polyline fill="none" stroke="black" points="759.11,-193.1 1027.34,-193.1 "/>
<text text-anchor="middle" x="834.32" y="-176.5" font-family="Courier New" font-size="14.00">unallocated (12)</text>
<polyline fill="none" stroke="black" points="909.53,-168.3 909.53,-193.1 "/>
<text text-anchor="middle" x="968.44" y="-176.5" font-family="Courier New" font-size="14.00">address (20)</text>
<polyline fill="none" stroke="black" points="759.11,-168.3 1027.34,-168.3 "/>
<text text-anchor="middle" x="834.32" y="-151.7" font-family="Courier New" font-size="14.00">unallocated (12)</text>
<polyline fill="none" stroke="black" points="909.53,-143.5 909.53,-168.3 "/>
<text text-anchor="middle" x="968.44" y="-151.7" font-family="Courier New" font-size="14.00">address (20)</text>
<polyline fill="none" stroke="black" points="759.11,-143.5 1027.34,-143.5 "/>
<text text-anchor="middle" x="834.32" y="-126.9" font-family="Courier New" font-size="14.00">unallocated (12)</text>
<polyline fill="none" stroke="black" points="909.53,-118.7 909.53,-143.5 "/>
<text text-anchor="middle" x="968.44" y="-126.9" font-family="Courier New" font-size="14.00">address (20)</text>
</g>
<!-- 3&#45;&gt;1 -->
<g id="edge1" class="edge">
<title>3:7&#45;&gt;1</title>
<path fill="none" stroke="black" d="M527.68,-159.1C583.67,-159.1 644.6,-163.72 699.21,-169.56"/>
<polygon fill="black" stroke="black" points="699.01,-173.05 709.33,-170.66 699.76,-166.1 699.01,-173.05"/>
</g>
<!-- 2 -->
<g id="node3" class="node">
<title>2</title>
<polygon fill="#f2f2f2" stroke="black" points="563.68,-0.5 563.68,-99.7 1173.77,-99.7 1173.77,-0.5 563.68,-0.5"/>
<text text-anchor="middle" x="868.73" y="-83.1" font-family="Courier New" font-size="14.00">ImportantStruct &lt;&lt;Struct&gt;&gt;</text>
<polyline fill="none" stroke="black" points="563.68,-74.9 1173.77,-74.9 "/>
<text text-anchor="middle" x="596.88" y="-58.3" font-family="Courier New" font-size="14.00">offset</text>
<polyline fill="none" stroke="black" points="563.68,-50.1 630.09,-50.1 "/>
<text text-anchor="middle" x="596.88" y="-33.5" font-family="Courier New" font-size="14.00">0</text>
<polyline fill="none" stroke="black" points="563.68,-25.3 630.09,-25.3 "/>
<text text-anchor="middle" x="596.88" y="-8.7" font-family="Courier New" font-size="14.00">1</text>
<polyline fill="none" stroke="black" points="630.09,-0.5 630.09,-74.9 "/>
<text text-anchor="middle" x="901.93" y="-58.3" font-family="Courier New" font-size="14.00">type: variable (bytes)</text>
<polyline fill="none" stroke="black" points="630.09,-50.1 1173.77,-50.1 "/>
<text text-anchor="middle" x="901.6" y="-33.5" font-family="Courier New" font-size="14.00">uint256: amount (32)</text>
<polyline fill="none" stroke="black" points="630.09,-25.3 1173.77,-25.3 "/>
<text text-anchor="middle" x="705.3" y="-8.7" font-family="Courier New" font-size="14.00">unallocated (11)</text>
<polyline fill="none" stroke="black" points="780.51,-0.5 780.51,-25.3 "/>
<text text-anchor="middle" x="872.52" y="-8.7" font-family="Courier New" font-size="14.00">address: sender (20)</text>
<polyline fill="none" stroke="black" points="964.54,-0.5 964.54,-25.3 "/>
<text text-anchor="middle" x="1069.15" y="-8.7" font-family="Courier New" font-size="14.00">bool: paymentStatus (1)</text>
</g>
<!-- 3&#45;&gt;2 -->
<g id="edge2" class="edge">
<title>3:13&#45;&gt;2</title>
<path fill="none" stroke="black" d="M527.68,-84.1C536.1,-84.1 544.64,-84 553.24,-83.8"/>
<polygon fill="black" stroke="black" points="553.48,-87.29 563.38,-83.52 553.29,-80.3 553.48,-87.29"/>
</g>
</g>
</svg>
